# xmcd
# 
# Track frame offsets:
#     150
#     21048
#     41943
#     65205
#     86898
#     107103
#     125775
#     144603
#     162188
#     182813
# 
# Disc length: 2661
# 
# Revision: 2
# Processed by: cddbd v1.5.2PL0 Copyright (c) Steve Scherf et al.
# Submitted via: fre:ac v1.0.31
# 
DISCID=980a630a
DTITLE=Various Artist - Bao Giờ Biết Tương Tư - Ngọc Lan - Vũ Khanh - Kiều Nga - Giáng Ngọc Productions
DYEAR=1990
DGENRE=Pop
TTITLE0=Ngọc Lan - Xin Mặt Trời Hãy Ngũ Yên - Trịnh Công Sơn
TTITLE1=Vũ Khanh - Đêm Say - Vũ Thành An
TTITLE2=Kiều Nga - Em Chết Theo Ngày Vu Quy - Bảo Tô
TTITLE3=Ngọc Lan - Bao Giờ Biết Tương Tư - Phạm Duy
TTITLE4=Vũ Khanh - Đừng Yêu Tôi - Vũ Thành An
TTITLE5=Kiều Nga - Nỗi Buồn -  Văn Phụng
TTITLE6=Vũ Khanh - Em Đến Thăm Anh Đêm 30 - Vũ Thành An - Thơ Nguyễn Đình Toàn
TTITLE7=Ngọc Lan - Hối Tiếc - Trầm Tử Thiêng
TTITLE8=Vũ Khanh - Những Tâm Hồn Hoang Lạnh  - Y Vũ - Trúc Sơn
TTITLE9=Kiều Nga - Người Yêu Dấu - Lv Chí Tài
EXTD=
EXTT0=
EXTT1=
EXTT2=
EXTT3=
EXTT4=
EXTT5=
EXTT6=
EXTT7=
EXTT8=
EXTT9=
PLAYORDER=
